<svg width="298" height="29" viewBox="0 0 298 29" fill="none" xmlns="http://www.w3.org/2000/svg">
<rect width="298" height="2" fill="white" fill-opacity="0.2"/>
<g opacity="0.2" clip-path="url(#clip0_853_33085)">
<path d="M1.2883 26.2125V28.9999H0V22.2305H2.79873C3.97597 22.2305 4.90889 23.1317 4.90889 24.2215C4.90889 25.3113 3.97597 26.2125 2.79873 26.2125H1.2883ZM1.2883 23.4251V25.0179H2.79873C3.26519 25.0179 3.64279 24.6616 3.64279 24.2215C3.64279 23.7814 3.26519 23.4251 2.79873 23.4251H1.2883Z" fill="white"/>
<path d="M11.1283 26.6946L10.1287 27.2605L11.1061 27.7635V29.0209H9.83998V28.5389L8.81822 27.973L7.5077 28.6856V29H6.24161V24.5988C6.24161 23.2994 7.33 22.2096 8.66273 22.2305C10.0177 22.2305 11.1283 23.2994 11.1283 24.5988V26.6736V26.6946ZM9.83998 24.6197C9.83998 23.991 9.3291 23.467 8.66273 23.467C8.04079 23.467 7.52991 23.991 7.52991 24.6197V27.1976L9.83998 25.9191V24.6197Z" fill="white"/>
<path d="M17.7697 24.4521V26.5479C17.7697 27.8892 16.5703 29 15.1931 29C13.7937 29 12.7054 27.8892 12.7054 26.5479V24.4521C12.7276 23.0898 13.8604 22 15.2153 22C16.6591 22 17.7697 23.0898 17.7697 24.4521ZM16.437 24.4521C16.437 23.7814 15.9039 23.2365 15.1931 23.2365C14.5712 23.2365 14.0159 23.7814 14.0159 24.4521V26.5479C14.0159 27.2186 14.5267 27.7635 15.1931 27.7635C15.8595 27.7635 16.437 27.2186 16.437 26.5479V24.4521Z" fill="white"/>
<path d="M21.0793 28.9999V23.446H20.5685V23.8652H19.2802V22.2305H24.1668V23.8652H22.8785V23.446H22.3454V28.9999H21.0793Z" fill="white"/>
<path d="M30.5417 24.4521V26.5479C30.5417 27.8892 29.3423 29 27.9651 29C26.5657 29 25.4773 27.8892 25.4773 26.5479V24.4521C25.4996 23.0898 26.6324 22 27.9873 22C29.4311 22 30.5417 23.0898 30.5417 24.4521ZM29.209 24.4521C29.209 23.7814 28.6759 23.2365 27.9651 23.2365C27.3432 23.2365 26.7879 23.7814 26.7879 24.4521V26.5479C26.7879 27.2186 27.2987 27.7635 27.9651 27.7635C28.6315 27.7635 29.209 27.2186 29.209 26.5479V24.4521Z" fill="white"/>
<path d="M36.9388 27.7424V28.9999H35.6505V28.5179L32.0521 26.5059V24.6826L35.6505 22.6706V22.2305H36.9388V23.488L33.3404 25.4999V25.7305L36.9388 27.7424Z" fill="white"/>
<path d="M43.3359 24.4521V26.5479C43.3359 27.8892 42.1364 29 40.7593 29C39.3599 29 38.2715 27.8892 38.2715 26.5479V24.4521C38.2715 23.0898 39.4044 22 40.7593 22C42.2031 22 43.3137 23.0898 43.3137 24.4521H43.3359ZM42.0032 24.4521C42.0032 23.7814 41.4701 23.2365 40.7593 23.2365C40.1374 23.2365 39.582 23.7814 39.582 24.4521V26.5479C39.582 27.2186 40.0929 27.7635 40.7593 27.7635C41.4257 27.7635 42.0032 27.2186 42.0032 26.5479V24.4521Z" fill="white"/>
<path d="M46.1124 27.8054H49.7108V29.0209H44.8241V22.2515H46.1124V27.8054Z" fill="white"/>
<path d="M52.8649 26.2127H51.5988V25.0181H52.8649V26.2127ZM52.8649 29.0001H51.5988V27.8055H52.8649V29.0001Z" fill="white"/>
<path d="M58.5512 22.2305H60.9946C62.3495 22.2305 63.4379 23.2993 63.4379 24.5987V26.6317C63.4379 27.9311 62.3495 28.9999 60.9946 28.9999H58.5512V22.2305ZM62.1496 24.5987C62.1496 23.97 61.6387 23.446 60.9946 23.446H59.8395V27.8053H60.9946C61.6387 27.8053 62.1496 27.2814 62.1496 26.6317V24.5987Z" fill="white"/>
<path d="M66.3255 27.8054H69.9238V29.0209H65.0372V22.2515H66.3255V27.8054Z" fill="white"/>
<path d="M72.2339 22V22.5449L74.6773 25.2485V22H75.9878V29H74.6773V27.2605L72.2339 24.5569V29H70.9234V22H72.2339Z" fill="white"/>
<path d="M82.4293 29H77.5426V27.8054H82.4071V29H82.4293Z" fill="white"/>
<path d="M85.4946 26.2125V28.9999H84.2063V22.2305H87.005C88.1822 22.2305 89.1151 23.1317 89.1151 24.2215C89.1151 25.3113 88.1822 26.2125 87.005 26.2125H85.4946ZM85.4946 23.4251V25.0179H87.005C87.4714 25.0179 87.849 24.6616 87.849 24.2215C87.849 23.7814 87.4714 23.4251 87.005 23.4251H85.4946Z" fill="white"/>
<path d="M95.3345 29H90.4479V27.8054H95.3123V29H95.3345Z" fill="white"/>
<path d="M97.1337 24.5987C97.1337 23.2993 98.2443 22.2305 99.5326 22.2305C100.932 22.2305 102.02 23.2993 102.02 24.5987V26.6317C102.02 27.9101 100.865 28.9999 99.5326 28.9999C98.1777 28.9999 97.1337 27.9311 97.1337 26.6317V24.5987ZM98.3998 24.5987V25.8981L100.332 23.7395C100.11 23.5508 99.8436 23.446 99.5326 23.446C98.9107 23.446 98.3998 23.97 98.3998 24.5987ZM100.732 26.6317V25.1856L98.6886 27.4281C98.8885 27.6377 99.1995 27.8053 99.5326 27.8053C100.177 27.8053 100.732 27.2814 100.732 26.6317Z" fill="white"/>
<path d="M103.642 24.7245L107.24 22.7125V22.2305H108.506V23.488L104.908 25.4999V25.8143H107.24V25.0179H108.506V28.9999H107.24V27.0299H103.62V24.7035L103.642 24.7245Z" fill="white"/>
<path d="M113.26 25.1437V25.8144L115.126 27.8892V29H113.837V28.4551L112.616 27.0928L111.394 28.4341V28.979H110.083V27.8473L111.949 25.8144V25.1647L110.083 23.0898V22H111.394V22.5449L112.571 23.8862L113.815 22.5449V22H115.103V23.1108L113.238 25.1437H113.26Z" fill="white"/>
<path d="M121.412 29H116.525V27.8054H121.389V29H121.412Z" fill="white"/>
<path d="M123.189 22.2305H125.632C126.987 22.2305 128.075 23.2993 128.075 24.5987V26.6317C128.075 27.9311 126.987 28.9999 125.632 28.9999H123.189V22.2305ZM126.787 24.5987C126.787 23.97 126.276 23.446 125.632 23.446H124.477V27.8053H125.632C126.276 27.8053 126.787 27.2814 126.787 26.6317V24.5987Z" fill="white"/>
<path d="M129.697 24.7245L133.295 22.7125V22.2305H134.561V23.488L131.851 25.0179H134.583V26.2335H130.985V27.8053H134.583V29.0209H129.697V24.7245Z" fill="white"/>
<path d="M135.961 22.2305H140.847V23.446H137.227V24.9969H140.847V26.2125H137.471L139.004 27.9311V28.9999H137.76V28.476L135.961 26.464V22.2305Z" fill="white"/>
<path d="M142.113 24.7245L145.712 22.7125V22.2305H146.978V23.488L144.268 25.0179H147V26.2335H143.402V27.8053H147V29.0209H142.113V24.7245Z" fill="white"/>
</g>
<defs>
<clipPath id="clip0_853_33085">
<rect width="147" height="7" fill="white" transform="translate(0 22)"/>
</clipPath>
</defs>
</svg>
